<svg width="20" height="20" viewBox="0 0 20 20" fill="none" xmlns="http://www.w3.org/2000/svg">
<rect x="1" y="1" width="18" height="18" stroke="black" stroke-width="2"/>
<path d="M10.6621 7.664C10.5781 7.57067 10.4008 7.44933 10.1301 7.3C9.85944 7.14133 9.53277 7.00133 9.1501 6.88C8.77677 6.74933 8.38944 6.684 7.9881 6.684C6.93344 6.684 6.4061 7.05733 6.4061 7.804C6.4061 8.07467 6.4901 8.28933 6.6581 8.448C6.8261 8.60667 7.0781 8.742 7.4141 8.854C7.7501 8.966 8.1701 9.08733 8.6741 9.218C9.32744 9.386 9.8921 9.582 10.3681 9.806C10.8534 10.03 11.2221 10.3287 11.4741 10.702C11.7354 11.066 11.8661 11.5513 11.8661 12.158C11.8661 12.8673 11.6934 13.4413 11.3481 13.88C11.0121 14.3093 10.5641 14.622 10.0041 14.818C9.4441 15.014 8.83744 15.112 8.1841 15.112C7.43744 15.112 6.69544 15 5.9581 14.776C5.2301 14.5427 4.58143 14.2253 4.0121 13.824L4.8661 12.158C4.9501 12.242 5.09943 12.354 5.3141 12.494C5.52877 12.6247 5.7901 12.76 6.0981 12.9C6.4061 13.0307 6.7421 13.1427 7.1061 13.236C7.4701 13.3293 7.83877 13.376 8.2121 13.376C9.2761 13.376 9.8081 13.0353 9.8081 12.354C9.8081 12.0647 9.70077 11.8313 9.4861 11.654C9.27144 11.4767 8.9681 11.3273 8.5761 11.206C8.19344 11.0847 7.74544 10.9493 7.2321 10.8C6.59744 10.6227 6.0701 10.4267 5.6501 10.212C5.23944 9.988 4.93143 9.71267 4.7261 9.386C4.52077 9.05 4.4181 8.62533 4.4181 8.112C4.4181 7.43067 4.57677 6.86133 4.8941 6.404C5.22077 5.93733 5.65943 5.58733 6.2101 5.354C6.76077 5.11133 7.3721 4.99 8.0441 4.99C8.73477 4.99 9.37877 5.102 9.9761 5.326C10.5734 5.55 11.0868 5.80667 11.5161 6.096L10.6621 7.664ZM13.326 15V5.06H15.258V15H13.326Z" fill="black"/>
</svg>
